<svg width="32" height="32" viewBox="0 0 32 32" fill="none" xmlns="http://www.w3.org/2000/svg">
<path fill-rule="evenodd" clip-rule="evenodd" d="M7.84719 0.0165273C6.95357 0.15106 6.55544 0.237342 6.01103 0.414432C4.70272 0.840075 3.57039 1.54128 2.54764 2.55915C1.5416 3.56044 0.831851 4.70766 0.407084 6.01933C-0.0139607 7.31933 5.46051e-05 6.97632 5.46051e-05 15.9946C5.46051e-05 23.8439 0.00779213 24.3514 0.13612 24.9367C0.927914 28.5464 3.78077 31.2821 7.33621 31.8411C7.92771 31.9342 9.24792 31.9469 16.3148 31.9285L24.5999 31.9068L25.2988 31.7141C28.547 30.8183 30.81 28.5554 31.7058 25.3071L31.8985 24.6082L31.9194 16.2945C31.9373 9.14694 31.9248 7.89118 31.8301 7.34247C31.2768 4.1366 29.0166 1.46106 26.0085 0.451222C24.6417 -0.00756144 25.2324 0.0195203 16.2418 0.00360703C11.7251 -0.0044226 7.94756 0.00141699 7.84719 0.0165273ZM8.57716 2.93099C7.17796 3.23415 5.94154 3.91031 4.92178 4.93008C4.01881 5.83304 3.3814 6.9215 3.01562 8.18529L2.84692 8.76795V15.9581V23.1483L3.01365 23.7238C3.3952 25.0411 3.91589 25.9542 4.83258 26.9137C5.7938 27.9198 6.99269 28.6092 8.40875 28.9701L9.05164 29.134H15.9498H22.848L23.4909 28.9701C24.9093 28.6086 26.0994 27.9265 27.0528 26.9286C27.7005 26.2506 27.9536 25.8959 28.3493 25.1111C28.7715 24.274 29.0073 23.3889 29.0954 22.3114C29.1416 21.7466 29.1612 18.9656 29.1464 15.0457L29.1226 8.69495L28.9547 8.14748C28.5659 6.87938 27.9366 5.81582 27.0508 4.93008C26.1653 4.04455 25.1028 3.41569 23.8335 3.02596L23.286 2.85785L16.1688 2.84303C10.2804 2.83077 8.96973 2.84595 8.57716 2.93099ZM23.956 5.48624C23.2416 5.7483 22.6655 6.56272 22.6655 7.3105C22.6655 8.30106 23.2969 9.07847 24.2444 9.25469C25.7707 9.53857 26.9643 7.90878 26.2973 6.45184C26.0773 5.9713 25.8841 5.77603 25.4029 5.54799C24.9821 5.34857 24.3991 5.32367 23.956 5.48624ZM14.5377 7.82133C11.0842 8.47377 8.40328 11.2428 7.88289 14.6951C7.68572 16.0031 7.79617 17.283 8.21378 18.5293C9.25581 21.6397 11.866 23.7668 15.1023 24.143C17.363 24.4058 19.8205 23.5259 21.5333 21.8402C24.163 19.2524 24.8036 15.343 23.1311 12.0893C22.7189 11.2874 22.2324 10.6469 21.5152 9.96166C20.4879 8.98022 19.2843 8.30413 17.9409 7.95411C17.0302 7.71672 15.4231 7.65402 14.5377 7.82133ZM14.9333 10.631C13.469 10.9396 12.1617 11.8007 11.3859 12.9677C9.60188 15.6513 10.5412 19.2868 13.4034 20.7759C14.9359 21.5732 16.7371 21.5678 18.3587 20.7613C18.8632 20.5103 19.1093 20.3225 19.6752 19.7566C20.7699 18.6617 21.1926 17.7154 21.2585 16.2113C21.2909 15.4737 21.2724 15.2342 21.1432 14.7149C20.6783 12.8479 19.3302 11.3928 17.5192 10.8034C17.0621 10.6545 16.753 10.6078 16.0958 10.5881C15.6341 10.5743 15.111 10.5936 14.9333 10.631Z" fill="white"/>
</svg>
