<svg width="34" height="34" viewBox="0 0 34 34" fill="none" xmlns="http://www.w3.org/2000/svg">
<path fill-rule="evenodd" clip-rule="evenodd" d="M13.8534 0.214291C6.9561 1.4657 1.46466 6.99175 0.255232 13.898C-1.54449 24.1738 6.40362 33.6255 16.8443 33.6255C27.285 33.6255 35.2331 24.1738 33.4334 13.898C32.2154 6.94368 26.7019 1.43013 19.7475 0.212208C18.1277 -0.0715618 15.423 -0.0706003 13.8534 0.214291ZM17.9126 6.49311C17.8537 6.55175 17.8057 9.94545 17.8057 14.0344C17.8057 19.2158 17.7512 21.575 17.6259 21.8191C17.3601 22.3365 16.6639 23.0476 16.1713 23.3049C15.9332 23.4292 15.371 23.531 14.9215 23.531C12.6201 23.531 11.2107 21.3235 12.2032 19.2732C12.6967 18.2538 13.6244 17.6825 14.7869 17.6825H15.7217L15.7222 15.8594L15.7227 14.0362L14.4685 14.1087C12.0705 14.2477 9.99457 15.6662 8.94377 17.8843C8.46949 18.8856 8.43215 19.0871 8.43215 20.6468C8.43215 22.1392 8.48086 22.4334 8.86413 23.2511C9.77088 25.186 11.7435 26.6957 13.8427 27.0613C17.2346 27.652 20.604 25.3517 21.3133 21.9609C21.4149 21.4754 21.491 19.4619 21.491 17.2589V13.406L22.172 13.8033C22.8725 14.2119 23.9002 14.5965 24.8158 14.7924L25.3365 14.904V12.7498V10.5958L24.6128 10.4966C23.1366 10.2943 21.7466 9.25101 21.0225 7.80188C20.7514 7.2595 20.5296 6.71904 20.5296 6.60095C20.5296 6.43975 20.2168 6.38624 19.2745 6.38624C18.5841 6.38624 17.9712 6.43431 17.9126 6.49311Z" fill="white"/>
</svg>
